<?xml version="1.0" standalone="no"?>
<!DOCTYPE svg PUBLIC "-//W3C//DTD SVG 20010904//EN"
 "http://www.w3.org/TR/2001/REC-SVG-20010904/DTD/svg10.dtd">
<svg version="1.0" xmlns="http://www.w3.org/2000/svg"
 width="700.000000pt" height="700.000000pt" viewBox="0 0 700.000000 700.000000"
 preserveAspectRatio="xMidYMid meet">
<metadata>
Created by potrace 1.11, written by Peter Selinger 2001-2013
</metadata>
<g transform="translate(0.000000,700.000000) scale(0.100000,-0.100000)"
fill="#000000" stroke="none">
<path d="M6340 6725 c-80 -35 -1135 -491 -2345 -1013 -1210 -523 -2535 -1095
-2945 -1272 -466 -201 -755 -331 -772 -347 -67 -64 -78 -205 -23 -284 29 -42
52 -52 1229 -580 659 -296 1200 -540 1202 -541 1 -2 244 -541 538 -1197 295
-657 544 -1203 554 -1214 50 -57 187 -76 269 -36 71 34 101 82 199 311 51 117
640 1486 1310 3043 l1218 2830 6 100 c5 85 4 105 -12 136 -10 20 -28 40 -41
46 -12 6 -56 27 -97 47 -44 21 -90 36 -110 36 -21 -1 -95 -27 -180 -65z"/>
</g>
</svg>
